<svg xmlns="http://www.w3.org/2000/svg" width="212.497" height="117.916"><g data-name="Group 21823" fill="#fff"><path data-name="Path 22314" d="M8.778 27.424C-3.614 46.5-2.607 71.518 10.036 90.245c10.068 14.91 26.723 24.757 44.461 27.161a57.286 57.286 0 0035.289-6.65 54.67 54.67 0 0014.609-11.523c3.3-3.72 8.36-10.043 7.038-15.448-2.316 3.224-4.471 6.773-7.554 9.344.686-1.473 1.322-2.972 2.106-4.4a36.078 36.078 0 00-3.1 3.6c.425-.707 1.257-1.988 1.12-2.906-2.607 2.492-3.973 8.228-7.282 9.808 1.737-2.62 3.723-5.367 4.6-8.423a24.222 24.222 0 01-2.165 1.98c.514-1.056 2.063-2.541 1.971-3.817-2.945 3.263-6.167 5.858-9.357 8.841 1.561-1.639 3.7-3.464 4.413-5.684-1.078.634-2.464 1.745-2.8 1.943-.607.355-1.423.491-1.108.621l-.415.1c-2.976 1.894-5.568 4.537-8.887 5.82-2.951 1.141-6.172 1.388-9.165 2.424-6.033 2.088-11.762 1.1-17.98.809-12.546-.581 9.558-26.542-24.284-20.986-14.72 2.416-21.958-19.167-19.681-33.1 1.912-11.7 9.8-21.609 18.88-28.836 2.941-2.341 7.223-.8 11.35.737 4.594 1.715 8.995 3.43 11.129-.218 4.6-7.853 15.117-10.962 23.468-10.722-9.408-2.752-19.707-3.9-29.348-1.8 10.358-3.686 21.328-2.722 31.562.794a53.724 53.724 0 0115.341 8.141 52.345 52.345 0 016.143 5.59c1.349 1.434 3.382 5.291 5.056 6.162-1.45-1.054-2.718-3.724-3.906-5.111a52.025 52.025 0 00-5.186-5.251 54.518 54.518 0 00-13.978-8.848C74.745 7.035 66.188 4.821 57.82 4.958c-23.314.383-44.8 16.7-53.659 37.9C11.478 17.453 37.883-1.353 64.413 1.799a64.117 64.117 0 0126.955 9.819 56.745 56.745 0 0114.436 13.569c.418.557 5 6.967 5.314 6.673.5-.465-6.121-8.84-6.739-9.6A58.132 58.132 0 0092.57 11.348 64.275 64.275 0 0062.144.19a51.165 51.165 0 00-4.4-.188c-19.587 0-38.333 11.06-48.962 27.424"/><path data-name="Path 22315" d="M52.278 44.511l-2.01 19.162a5.566 5.566 0 00.164 2.631 1.391 1.391 0 001.414.8 1.763 1.763 0 001.583-.8 6.224 6.224 0 00.718-2.631l2.014-19.166c1.079-1 7-.974 7.933 0l-3.053 29.044h-7.673l.373-3.543h-.088a6.459 6.459 0 01-6.208 4.134 9.271 9.271 0 01-2.414-.3 3.568 3.568 0 01-1.837-1.181 5.438 5.438 0 01-1.068-2.417 12.576 12.576 0 01-.082-3.838l2.3-21.9c1-.751 7.072-.885 7.932 0"/><path data-name="Path 22316" d="M129.029 44.523l-.372 3.544h.089q1.991-4.3 6.225-4.295a7.864 7.864 0 012.41.349 3.823 3.823 0 011.828 1.262 5.719 5.719 0 011.068 2.415 12.556 12.556 0 01.078 3.866l-2.3 21.9h-7.934l2.013-19.165a5.568 5.568 0 00-.164-2.631 1.389 1.389 0 00-1.413-.805 1.763 1.763 0 00-1.583.805 6.2 6.2 0 00-.717 2.631l-2.015 19.165h-7.936l3.053-29.044c1.16-.751 6.681-.865 7.668 0"/><path data-name="Path 22317" d="M77.277 51.772a1.392 1.392 0 00-1.413-.805 1.766 1.766 0 00-1.584.805 6.22 6.22 0 00-.717 2.631L71.548 73.57h-7.932l3.052-29.045c1.281-.958 6.8-.758 7.669 0l-.373 3.543h.088q1.994-4.3 6.225-4.294a5.218 5.218 0 013.651 1.1 6.393 6.393 0 011.7 3.355 7.656 7.656 0 012.9-3.463 7.009 7.009 0 013.563-.992 7.858 7.858 0 012.409.348 3.827 3.827 0 011.828 1.262 5.7 5.7 0 011.069 2.415 12.575 12.575 0 01.078 3.865l-2.3 21.9h-7.932l2.014-19.167a5.583 5.583 0 00-.164-2.631 1.394 1.394 0 00-1.415-.805 1.766 1.766 0 00-1.583.805 6.215 6.215 0 00-.717 2.631l-2.015 19.167h-7.937l2.015-19.167a5.575 5.575 0 00-.164-2.631"/><path data-name="Path 22318" d="M105.734 64.488q-.249 2.362.331 3.14a1.715 1.715 0 001.416.779 2.072 2.072 0 001.761-1.047 19.575 19.575 0 001.015-4c1.123-.846 6-.9 7.14 0 0 0-1.466 6.272-3.1 8.079s-4.09 2.711-7.38 2.711a12.328 12.328 0 01-4.723-.778 5.721 5.721 0 01-2.858-2.577 11.278 11.278 0 01-1.2-4.7 41.378 41.378 0 01.233-7.033 38.829 38.829 0 011.318-7.088 14.325 14.325 0 012.3-4.724 8.4 8.4 0 013.43-2.658 12.207 12.207 0 014.693-.832 10.824 10.824 0 014.092.7 5.817 5.817 0 012.752 2.336 10.26 10.26 0 011.354 4.298 30.709 30.709 0 01-.1 6.631l-.311 2.952h-11.762zm5.343-13.744a1.526 1.526 0 00-1.628-1.074 1.916 1.916 0 00-1.81 1.074 9.685 9.685 0 00-.818 3.382l-.136 1.288h4.362l.136-1.288a8.86 8.86 0 00-.107-3.382"/><path data-name="Path 22319" d="M145.485 44.946l.9-8.537c1.405-.912 6.71-.756 7.933 0l-.9 8.537h3.128l-.681 6.5h-3.129l-1.456 13.85a2.419 2.419 0 00.279 1.746 1.668 1.668 0 001.378.509h1.234l-.677 6.442c-.734 0-1.473.027-2.212.081s-1.448.081-2.124.081a21.2 21.2 0 01-3.065-.188 3.389 3.389 0 01-1.995-.94 3.909 3.909 0 01-.956-2.228 16.063 16.063 0 01.034-3.892l1.626-15.461h-2.645l.683-6.5z"/><path data-name="Path 22320" d="M167.466 44.511l-2.014 19.166a5.568 5.568 0 00.164 2.631 1.391 1.391 0 001.414.8 1.761 1.761 0 001.583-.8 6.217 6.217 0 00.718-2.631l2.014-19.166c1.08-1 7-.974 7.933 0l-3.052 29.044h-7.67l.373-3.543h-.088a6.46 6.46 0 01-6.208 4.134 9.269 9.269 0 01-2.414-.3 3.57 3.57 0 01-1.837-1.181 5.447 5.447 0 01-1.068-2.417 12.548 12.548 0 01-.081-3.838l2.3-21.9c1-.751 7.073-.885 7.932 0"/><path data-name="Path 22321" d="M192.194 51.772a1.391 1.391 0 00-1.413-.805 1.765 1.765 0 00-1.584.805 6.2 6.2 0 00-.717 2.631l-2.015 19.167h-7.933l3.053-29.045c1.029-1.049 7-.864 7.668 0l-.373 3.543h.089q1.994-4.3 6.225-4.294a5.221 5.221 0 013.652 1.1 6.4 6.4 0 011.7 3.355 7.658 7.658 0 012.9-3.463 7.007 7.007 0 013.563-.992 7.86 7.86 0 012.409.348 3.823 3.823 0 011.828 1.262 5.692 5.692 0 011.069 2.415 12.563 12.563 0 01.078 3.865l-2.3 21.9h-7.938l2.015-19.167a5.577 5.577 0 00-.164-2.631 1.393 1.393 0 00-1.415-.805 1.767 1.767 0 00-1.583.805 6.215 6.215 0 00-.717 2.631l-2.015 19.167h-7.933l2.015-19.167a5.591 5.591 0 00-.164-2.631"/><path data-name="Path 22322" d="M31.247 35.338l-1.315 12.509h.089a7.285 7.285 0 012.865-3.141 6.669 6.669 0 013.061-.831 7.035 7.035 0 012.318.375 4.159 4.159 0 011.847 1.288 5.718 5.718 0 011.11 2.443 11.834 11.834 0 01.109 3.785l-2.3 21.9h-7.933l2.014-19.165a5.572 5.572 0 00-.165-2.631 1.388 1.388 0 00-1.413-.805 1.761 1.761 0 00-1.583.805 6.214 6.214 0 00-.718 2.631l-2.014 19.166h-7.933l4.029-38.331c1.336-1.023 6.707-1.023 7.932 0"/></g></svg>